<svg id="Calque_1" data-name="Calque 1" xmlns="http://www.w3.org/2000/svg" viewBox="0 0 617.61 139.5"><defs><style>.cls-1{fill:#1e2022;}.cls-2{fill:#2077dd;}</style></defs><title>confapp-logo</title><path class="cls-1" d="M40.09,54.47a16.59,16.59,0,0,0-12.33,5q-4.92,5-4.91,13.77,0,8.63,5.07,13.62a17.06,17.06,0,0,0,12.48,5A15.48,15.48,0,0,0,56,80.64l20.28,6.21a34.53,34.53,0,0,1-12.18,18.46Q54.62,113,40.4,113q-16.95,0-28.67-11.27T0,73.23q0-17.4,11.42-28.67T39.64,33.29q14.67,0,24.06,7.56A33.9,33.9,0,0,1,75.8,59.46l-20.58,6.2a15.75,15.75,0,0,0-5.14-8Q46.3,54.47,40.09,54.47Z"/><path class="cls-1" d="M124.07,33.29q17.09,0,28.52,11.19T164,73.08q0,17.4-11.42,28.67T124.07,113q-16.95,0-28.45-11.35T84.12,73.08q0-17.25,11.5-28.52T124.07,33.29Zm0,58.55a16.45,16.45,0,0,0,12-4.84Q141,82.16,141,73.08t-4.92-13.85a17.37,17.37,0,0,0-24,.08q-5,4.84-5,13.77t5,13.84A16.45,16.45,0,0,0,124.07,91.84Z"/><path class="cls-1" d="M201.83,67.63v43.12h-23V35.56h22.24v8.62a19.2,19.2,0,0,1,8.85-7.79,28.36,28.36,0,0,1,12.18-2.8q13.47,0,20.43,8.4t7,21.56v47.2h-23V67.48A14,14,0,0,0,223.4,58q-3.1-3.54-9.16-3.55a11.65,11.65,0,0,0-9,3.71A13.43,13.43,0,0,0,201.83,67.63Z"/><path class="cls-1" d="M311.68,54.92H295.34v55.83h-23V54.92H260.39V35.56h11.95V29.05q0-13.17,7.64-21.11T301.09,0Q308.65,0,312,1.66V20.43a27.88,27.88,0,0,0-6.81-.76,11,11,0,0,0-6.88,2.27c-2,1.51-3,4.14-3,7.87v5.75h16.34Z"/><path class="cls-2" d="M317.12,107.5a15.13,15.13,0,0,1-4.54-11A15.5,15.5,0,0,1,328,81.1a15.11,15.11,0,0,1,11,4.54,14.73,14.73,0,0,1,4.61,10.89A15.06,15.06,0,0,1,339,107.42a15.18,15.18,0,0,1-21.87.08Z"/><path class="cls-2" d="M357.07,90q0-9.52,6.2-15.35t16-7.34L397,64.61c3.63-.51,5.45-2.22,5.45-5.15a7.15,7.15,0,0,0-2.95-5.82q-3-2.36-8.1-2.35a12.73,12.73,0,0,0-9.15,3.25,11.53,11.53,0,0,0-3.71,7.8l-20-4.09q.75-9.37,9.31-17.17t23.68-7.79q17.08,0,25.19,8.17t8.09,20.88V99.1a60.78,60.78,0,0,0,.91,11.65H405a36.91,36.91,0,0,1-.76-8.47q-6.5,10.59-21.18,10.59-12,0-19-6.73A21.53,21.53,0,0,1,357.07,90Zm31.62,6.21a14.32,14.32,0,0,0,9.84-3.48q3.93-3.48,3.93-11.5V77.92l-14.22,2.27q-8.48,1.36-8.48,8.32A7.55,7.55,0,0,0,382,94C383.42,95.47,385.67,96.23,388.69,96.23Z"/><path class="cls-2" d="M467.21,139.5h-23V35.56h22.24v7.71Q469,39.34,475,36.54a31.46,31.46,0,0,1,13.54-2.8q16,0,25.49,11t9.46,28.22q0,17.25-10.06,28.37t-25.8,11.12q-14.22,0-20.43-7.57ZM496,86.92q4.9-4.9,4.91-13.84T496,59.31a16.67,16.67,0,0,0-12.18-4.84,16.49,16.49,0,0,0-12,4.84q-4.92,4.84-4.92,13.77t4.92,13.84a16.36,16.36,0,0,0,12,4.92A16.54,16.54,0,0,0,496,86.92Z"/><path class="cls-2" d="M561.32,139.5h-23V35.56h22.25v7.71q2.56-3.93,8.54-6.73a31.54,31.54,0,0,1,13.55-2.8q16,0,25.49,11t9.46,28.22q0,17.25-10.07,28.37t-25.79,11.12q-14.22,0-20.43-7.57Zm28.83-52.58q4.9-4.9,4.91-13.84t-4.91-13.77A16.67,16.67,0,0,0,578,54.47a16.46,16.46,0,0,0-12,4.84Q561,64.16,561,73.08t4.92,13.84a16.33,16.33,0,0,0,12,4.92A16.54,16.54,0,0,0,590.15,86.92Z"/></svg>